<svg width="33" height="32" viewBox="0 0 33 32" fill="none" xmlns="http://www.w3.org/2000/svg">
<path d="M18.6666 27.9489C15.3008 28.0776 12.2155 27.9632 8.31811 27.6063C6.92716 27.479 5.81643 26.3147 5.68776 24.837C5.16048 18.7815 5.2628 14.5374 5.72259 8.55226C5.83828 7.04626 6.958 5.84344 8.37429 5.71512C13.9903 5.20625 17.9555 5.20507 23.6441 5.71761C25.0569 5.84491 26.1767 7.04131 26.2936 8.54347C26.6428 13.0282 26.7584 16.5156 26.591 20.4647M18.6666 27.9489L26.591 20.4647M18.6666 27.9489V23.798C18.6666 21.9571 20.159 20.4647 21.9999 20.4647H26.591M10.6666 4V7.33333M21.3333 4V7.33333" stroke="#828487" stroke-width="1.5" stroke-linecap="round"/>
<path d="M10.6667 12.6667H21.3334" stroke="#828487" stroke-width="1.5" stroke-linecap="round"/>
<path d="M10.6667 17.3333H17.3334" stroke="#828487" stroke-width="1.5" stroke-linecap="round"/>
</svg>
