<svg width="29" height="28" viewBox="0 0 29 28" fill="none" xmlns="http://www.w3.org/2000/svg">
<path fill-rule="evenodd" clip-rule="evenodd" d="M14.5024 28C17.9453 27.9959 21.2666 26.7259 23.8341 24.4318V28H27.3335V19.5907C27.3592 19.5324 27.3843 19.474 27.4088 19.4157L28.5 18.3249V4.08345C28.5 2.19521 26.9713 0.00013572 25.0006 0.00013572H23.8341V3.56837C19.1845 -0.593955 12.3417 -1.17539 7.05671 2.14278C1.7717 5.46095 -0.679044 11.8773 1.0479 17.8746C2.77484 23.8719 8.26236 28.0016 14.5024 28ZM25.0006 1.16681C26.2569 1.16681 27.3336 2.77097 27.3336 4.08346V17.8419L26.1671 19.0086V26.8334H25.0006V1.16681ZM23.8341 5.19179C21.4077 2.62596 18.0335 1.17056 14.5024 1.16681C8.64894 1.16689 3.53752 5.12907 2.07717 10.7984C0.616812 16.4676 3.17775 22.4068 8.30248 25.2357C13.4272 28.0646 19.8165 27.066 23.8341 22.8084V5.19179Z" fill="white"/>
<path fill-rule="evenodd" clip-rule="evenodd" d="M7.53449 16.8524C7.5361 14.9703 9.06288 13.4459 10.9447 13.4475C12.8256 13.4511 14.3487 14.977 14.349 16.8582C14.3474 18.7403 12.8206 20.2648 10.9388 20.2631C9.05705 20.2615 7.53288 18.7345 7.53449 16.8524ZM8.87202 17.7144C9.21959 18.5521 10.0377 19.0977 10.9446 19.0965C12.1793 19.0937 13.1796 18.0933 13.1825 16.8583C13.1836 15.9513 12.6381 15.133 11.8005 14.7854C10.9629 14.4378 9.99843 14.6293 9.3572 15.2707C8.71596 15.912 8.52444 16.8767 8.87202 17.7144Z" fill="white"/>
<path d="M16.8178 16.1917C16.7384 15.8812 16.4233 15.6929 16.1122 15.7701C15.8011 15.8474 15.6107 16.1612 15.6857 16.4729C15.9497 17.745 15.5711 19.0655 14.6732 20.0044C14.5216 20.1508 14.4608 20.3677 14.5142 20.5717C14.5676 20.7756 14.7268 20.9349 14.9307 20.9883C15.1347 21.0417 15.3515 20.9809 15.4979 20.8292C16.6816 19.5991 17.1763 17.8609 16.8178 16.1917Z" fill="white"/>
<path fill-rule="evenodd" clip-rule="evenodd" d="M21.9135 5.42104L20.747 4.25438C20.2128 3.71579 19.441 3.48667 18.6995 3.64656C17.958 3.80645 17.3491 4.33331 17.0843 5.04421C14.4532 4.26991 11.6144 4.69911 9.32968 6.21662C7.04496 7.73413 5.54824 10.1846 5.24116 12.9104C4.06129 14.6101 3.70266 16.7482 4.26337 18.7399C4.82408 20.7316 6.24544 22.3685 8.13866 23.2027C9.20122 24.5221 10.8039 25.2895 12.4977 25.2899C13.0421 25.2963 13.584 25.2166 14.1034 25.0536C15.3086 24.6615 16.3719 23.9237 17.1613 22.932C20.0759 22.0722 22.387 19.8427 23.3514 16.9606C24.3158 14.0784 23.8121 10.9068 22.0021 8.46544C22.7785 7.58554 22.7397 6.25426 21.9135 5.42104ZM19.1683 4.76711C19.4511 4.76679 19.7224 4.87908 19.9224 5.07919L21.0888 6.24585C21.3153 6.46886 21.4297 6.78181 21.4004 7.09833C21.3712 7.41486 21.2013 7.70151 20.9378 7.87918L20.9034 7.90076C20.7023 8.02654 20.465 8.08156 20.2292 8.0571H20.2058C20.0962 8.04344 19.9892 8.01336 19.8885 7.96785C19.8826 7.96519 19.877 7.96198 19.8713 7.95873C19.8671 7.95626 19.8627 7.95378 19.8582 7.95151C19.7558 7.90222 19.662 7.83662 19.5806 7.75726L18.4141 6.5906C18.2084 6.38483 18.0966 6.10333 18.105 5.81244V5.80486C18.1171 5.22679 18.5902 4.76508 19.1683 4.76711ZM17.2476 10.0876C17.6644 10.5034 18.339 10.5034 18.7559 10.0876C19.1716 9.67073 19.1716 8.996 18.7559 8.57912L17.5894 7.41246C17.1704 7.01103 16.5074 7.01815 16.0972 7.42849C15.6869 7.83883 15.6798 8.50189 16.0811 8.92095L17.2476 10.0876ZM13.7173 23.9528C11.9483 24.4819 10.0377 23.8402 8.94649 22.3504L8.85434 22.239L8.72078 22.1807C7.12691 21.5165 5.91448 20.1729 5.4167 18.5192C4.91892 16.8656 5.18818 15.0758 6.15047 13.6419L6.19946 13.5742C6.21878 13.5465 6.23924 13.52 6.2597 13.4934L6.25976 13.4933C6.27201 13.4774 6.28427 13.4615 6.29628 13.4453C6.41527 13.2831 6.54279 13.1273 6.6783 12.9786L6.70455 12.9495L6.73079 12.9203C7.18757 12.4314 7.72521 12.0249 8.3201 11.7187C8.50972 11.6224 8.70442 11.5365 8.90334 11.4614L8.98207 11.4328C9.15704 11.3698 9.33201 11.3162 9.51223 11.2695C9.52948 11.2652 9.54673 11.2607 9.56397 11.2561L9.56402 11.2561C9.587 11.25 9.60998 11.2439 9.63296 11.2386C9.80327 11.1983 9.9759 11.1686 10.1497 11.1447C10.1689 11.142 10.1878 11.1388 10.2068 11.1356C10.2334 11.1312 10.2601 11.1267 10.2873 11.1237C10.5055 11.0974 10.725 11.084 10.9447 11.0834C12.9153 11.0813 14.7497 12.0889 15.8053 13.7533L15.8846 13.8776L16.0135 13.9493C16.5081 14.2235 18.8994 15.7868 17.4582 19.6286L17.4302 19.7342C17.2392 20.5853 16.8683 21.3856 16.3425 22.0815L16.2258 22.2396C15.5714 23.0397 14.7006 23.6344 13.7173 23.9528ZM18.5657 19.9897C18.4686 20.441 18.3256 20.8812 18.1388 21.3034C20.307 20.2277 21.8852 18.2442 22.4465 15.8895C23.0078 13.5349 22.4941 11.0525 21.0445 9.11411C20.9519 9.14537 20.8574 9.17051 20.7616 9.18935C20.6259 9.21513 20.488 9.22821 20.3498 9.22844H20.3347H20.3119H20.2233C20.2718 10.1499 19.7465 11.0057 18.903 11.3795C18.0595 11.7533 17.0728 11.5675 16.4229 10.9125L15.2565 9.74585C14.3857 8.87326 14.3857 7.4603 15.2565 6.5877C15.5276 6.3201 15.8633 6.12719 16.231 6.0277C15.6636 5.90022 15.0839 5.83509 14.5023 5.83345C11.0263 5.82136 7.92697 8.02074 6.79024 11.3063C6.80077 11.2985 6.81157 11.2914 6.82231 11.2843C6.83418 11.2765 6.84599 11.2687 6.85731 11.2602C6.97687 11.1727 7.0976 11.0887 7.223 11.0088C7.24137 10.9969 7.26018 10.9857 7.27903 10.9744C7.2907 10.9675 7.30238 10.9605 7.31398 10.9533C7.74169 10.6889 8.19698 10.472 8.67175 10.3064C8.68715 10.3013 8.70172 10.2957 8.71613 10.2903C8.73118 10.2845 8.74607 10.2788 8.76157 10.2738C8.88462 10.2324 9.01059 10.1979 9.13656 10.1635L9.13659 10.1635L9.13663 10.1635C9.2171 10.1419 9.29757 10.1203 9.37863 10.1011C9.48594 10.0766 9.58626 10.055 9.70291 10.034C9.81955 10.013 9.9362 9.9961 10.0528 9.98093C10.0773 9.97777 10.1016 9.97447 10.1258 9.97118C10.1867 9.96291 10.2472 9.95469 10.3089 9.94885C10.5194 9.92902 10.7311 9.91677 10.9446 9.91677C13.2623 9.91474 15.4267 11.0751 16.7081 13.0067C17.3753 13.4232 19.7549 15.2117 18.8766 18.9391C18.8687 18.9729 18.8622 19.0059 18.8556 19.0389C18.8463 19.0862 18.8369 19.1335 18.8235 19.183C18.8078 19.2414 18.7871 19.303 18.7665 19.3643C18.7534 19.4034 18.7402 19.4424 18.7284 19.4805C18.7176 19.516 18.707 19.5514 18.6963 19.5868C18.6566 19.7191 18.6168 19.8517 18.5657 19.9897Z" fill="white"/>
</svg>
