<svg width="33" height="32" viewBox="0 0 33 32" fill="none" xmlns="http://www.w3.org/2000/svg">
<path fill-rule="evenodd" clip-rule="evenodd" d="M2.5 16C2.5 8.28037 8.78037 2 16.5 2C24.2196 2 30.5 8.28037 30.5 16C30.5 23.7196 24.2196 30 16.5 30C8.78037 30 2.5 23.7196 2.5 16ZM3.67429 16C3.67429 23.0722 9.4278 28.8257 16.5 28.8257C23.5722 28.8257 29.3257 23.0718 29.3257 16C29.3257 8.9278 23.5722 3.17429 16.5 3.17429C9.4278 3.17429 3.67429 8.9278 3.67429 16Z" fill="#828487"/>
<path fill-rule="evenodd" clip-rule="evenodd" d="M16.3072 11.6228C18.6293 11.6228 20.518 13.5118 20.518 15.8335C20.518 18.1552 18.6289 20.0443 16.3072 20.0443C13.9855 20.0443 12.0965 18.1556 12.0965 15.8335C12.0965 13.5115 13.9852 11.6228 16.3072 11.6228ZM13.1366 15.8337C13.1366 17.5816 14.559 19.0044 16.3073 19.0044C18.0559 19.0044 19.478 17.582 19.478 15.8337C19.478 14.0854 18.0556 12.663 16.3073 12.663C14.559 12.663 13.1366 14.0858 13.1366 15.8337Z" fill="#828487"/>
<path d="M16.8151 8.70246L18.0566 9.02556C18.086 9.03319 18.1152 9.03665 18.1443 9.03665C18.2982 9.03665 18.439 8.93335 18.4795 8.77734C18.5277 8.59187 18.4164 8.40258 18.2313 8.3544L16.9899 8.03129C16.8047 7.98276 16.6151 8.0937 16.5669 8.27951C16.5191 8.46499 16.63 8.65427 16.8151 8.70246Z" fill="#828487"/>
<path d="M12.3697 9.7159C12.4852 9.56337 12.4554 9.346 12.3025 9.23021C12.1496 9.11442 11.9322 9.14458 11.8168 9.29746L11.2305 10.0719C11.1151 10.2245 11.1449 10.4418 11.2978 10.5576C11.3606 10.6051 11.434 10.628 11.5069 10.628C11.6119 10.628 11.7155 10.5805 11.7835 10.4907L12.3697 9.7159Z" fill="#828487"/>
<path d="M14.9226 10.5995C14.9874 10.6532 15.0658 10.6792 15.1435 10.6792C15.2433 10.6792 15.3421 10.6363 15.4107 10.5537C15.5331 10.4064 15.5123 10.1877 15.365 10.0656L14.8072 9.6035C14.6595 9.48078 14.4414 9.50193 14.3191 9.64926C14.1967 9.7966 14.2175 10.0154 14.3648 10.1374L14.9226 10.5995Z" fill="#828487"/>
<path d="M20.6155 9.32959C20.6415 9.32959 20.6678 9.32682 20.6945 9.32058L21.6752 9.09212C21.8618 9.04878 21.9779 8.86227 21.9342 8.67576C21.8909 8.48925 21.7044 8.3738 21.5182 8.41645L20.5375 8.64491C20.3509 8.68824 20.2348 8.87475 20.2785 9.06126C20.3156 9.22143 20.4581 9.32959 20.6155 9.32959Z" fill="#828487"/>
<path d="M23.8568 13.35L23.0785 12.9731C22.9073 12.8896 22.6989 12.9617 22.6154 13.134C22.5322 13.3063 22.6043 13.5136 22.7766 13.5972L23.5549 13.974C23.6034 13.9976 23.6547 14.0087 23.7057 14.0087C23.8343 14.0087 23.9584 13.9366 24.018 13.8131C24.1012 13.6408 24.0291 13.4335 23.8568 13.35Z" fill="#828487"/>
<path d="M18.3245 11.5313C18.373 11.5545 18.424 11.5656 18.4743 11.5656C18.6036 11.5656 18.7273 11.4932 18.787 11.3691L19.2123 10.4826C19.2952 10.31 19.2224 10.103 19.0497 10.0201C18.8761 9.93624 18.6698 10.0101 18.5873 10.1827L18.1619 11.0692C18.079 11.2415 18.1518 11.4488 18.3245 11.5313Z" fill="#828487"/>
<path d="M19.6596 21.4397C19.5202 21.3086 19.3008 21.3159 19.1697 21.4556C19.0387 21.595 19.046 21.8145 19.1857 21.9455L19.8208 22.5411C19.8874 22.6038 19.9726 22.635 20.0579 22.635C20.1505 22.635 20.2424 22.5983 20.3106 22.5255C20.4417 22.3861 20.4344 22.1667 20.2947 22.0356L19.6596 21.4397Z" fill="#828487"/>
<path d="M23.2353 16.1556C23.1722 15.9746 22.9749 15.8782 22.7943 15.9413L21.9203 16.244C21.7397 16.3067 21.6433 16.504 21.7061 16.685C21.756 16.8285 21.8902 16.9183 22.0337 16.9183C22.0711 16.9183 22.1096 16.912 22.147 16.8992L23.021 16.5966C23.2016 16.5338 23.298 16.3366 23.2353 16.1556Z" fill="#828487"/>
<path d="M14.8536 22.9259L14.0542 23.2555C13.877 23.3287 13.7928 23.5315 13.8659 23.7087C13.921 23.8425 14.0503 23.9229 14.1866 23.9229C14.2306 23.9229 14.2753 23.9146 14.3187 23.8969L15.1181 23.5672C15.2953 23.4941 15.3795 23.2913 15.3063 23.1141C15.2332 22.937 15.03 22.8534 14.8536 22.9259Z" fill="#828487"/>
<path d="M20.8414 19.0143L20.0687 19.4199C19.8992 19.509 19.8336 19.7184 19.9227 19.8883C19.9848 20.0065 20.1051 20.0737 20.2302 20.0737C20.2843 20.0737 20.3394 20.0609 20.3911 20.0342L21.1638 19.6286C21.3334 19.5395 21.3989 19.3301 21.3098 19.1603C21.2207 18.9904 21.0117 18.9259 20.8414 19.0143Z" fill="#828487"/>
<path d="M23.4016 20.8695L22.7467 21.3389C22.591 21.4501 22.555 21.6668 22.667 21.8225C22.7346 21.9171 22.841 21.9674 22.9488 21.9674C23.0185 21.9674 23.0892 21.9462 23.1502 21.9022L23.8051 21.4328C23.9608 21.3215 23.9968 21.1048 23.8848 20.9492C23.7739 20.7932 23.5572 20.7575 23.4016 20.8695Z" fill="#828487"/>
<path d="M21.6745 11.2061C21.4994 11.1268 21.2946 11.2048 21.2159 11.3791L20.6546 12.6206C20.5756 12.795 20.6532 13.0005 20.8276 13.0792C20.874 13.1004 20.9222 13.1101 20.9701 13.1101C21.1022 13.1101 21.2283 13.0342 21.2862 12.9062L21.8475 11.6648C21.9266 11.4904 21.8489 11.2848 21.6745 11.2061Z" fill="#828487"/>
<path d="M9.70759 13.5725C9.82616 13.5725 9.94195 13.5114 10.0064 13.4019C10.1038 13.2369 10.0491 13.0244 9.88405 12.9269L8.82946 12.3043C8.66479 12.2072 8.45193 12.2617 8.35452 12.4267C8.2571 12.5917 8.31187 12.8042 8.47689 12.9016L9.53148 13.5243C9.5873 13.5569 9.64796 13.5725 9.70759 13.5725Z" fill="#828487"/>
<path d="M12.8408 12.1574C12.7379 11.9959 12.5233 11.9487 12.3621 12.0513L11.6829 12.4847C11.5214 12.5876 11.4739 12.8019 11.5769 12.9634C11.6431 13.0671 11.7551 13.1236 11.8695 13.1236C11.9332 13.1236 11.9977 13.1059 12.0556 13.0692L12.7348 12.6358C12.8963 12.5332 12.9435 12.319 12.8408 12.1574Z" fill="#828487"/>
<path d="M16.4653 21.5204L15.5785 21.2105C15.3979 21.1474 15.2 21.2427 15.1372 21.4234C15.0741 21.604 15.1694 21.8019 15.3501 21.865L16.2369 22.175C16.2746 22.1881 16.3131 22.1944 16.3513 22.1944C16.4948 22.1944 16.6286 22.1049 16.6785 21.9621C16.7416 21.7815 16.6459 21.5835 16.4653 21.5204Z" fill="#828487"/>
<path d="M10.1097 19.5288L9.28185 19.9587C9.11198 20.0471 9.04576 20.2561 9.13416 20.4263C9.19587 20.5452 9.31686 20.6132 9.44201 20.6132C9.49575 20.6132 9.55017 20.6007 9.60148 20.5744L10.4293 20.1445C10.5992 20.0561 10.6654 19.847 10.577 19.6768C10.489 19.5066 10.2796 19.4407 10.1097 19.5288Z" fill="#828487"/>
<path d="M10.4293 15.4917C10.2591 15.4029 10.0497 15.4692 9.96163 15.639L9.31508 16.8808C9.22668 17.0507 9.29289 17.2601 9.46242 17.3485C9.51338 17.3752 9.5685 17.3877 9.62224 17.3877C9.74739 17.3877 9.86838 17.3197 9.93008 17.2012L10.5766 15.9594C10.6654 15.7898 10.5992 15.5804 10.4293 15.4917Z" fill="#828487"/>
<path d="M12.5038 19.9161H12.5035C12.3118 19.9165 12.1568 20.0718 12.1572 20.2635L12.1586 21.1559C12.1589 21.3472 12.3139 21.5018 12.5052 21.5018H12.5056C12.6973 21.5015 12.8523 21.3462 12.8519 21.1545L12.8505 20.2621C12.8502 20.0708 12.6952 19.9161 12.5038 19.9161Z" fill="#828487"/>
<path d="M23.5816 18.3824L22.8671 18.4635C22.6767 18.485 22.5405 18.657 22.562 18.8469C22.5821 19.0238 22.7319 19.1544 22.9059 19.1544C22.9187 19.1544 22.9319 19.1538 22.9454 19.152L23.6599 19.0709C23.8502 19.0494 23.9865 18.8775 23.965 18.6875C23.9435 18.4975 23.7764 18.3574 23.5816 18.3824Z" fill="#828487"/>
<path fill-rule="evenodd" clip-rule="evenodd" d="M27.2674 14.7663L27.2865 15.0117C27.2872 15.0253 27.2879 15.0388 27.2868 15.053V15.1757C27.2868 15.1879 27.2865 15.2003 27.2855 15.2128L27.2761 15.3449C27.2751 15.3591 27.2733 15.373 27.2712 15.3872L27.2342 15.6313C27.2324 15.6444 27.2296 15.6576 27.2265 15.6704L27.1981 15.7932C27.1959 15.8043 27.1928 15.8152 27.1896 15.8263L27.1887 15.8292L27.1135 16.0733C27.1083 16.0899 27.1028 16.1062 27.0958 16.1222L26.9579 16.4633C26.9488 16.4855 26.9388 16.5063 26.9273 16.5271L26.677 16.9597C26.6712 16.9698 26.6649 16.9798 26.6583 16.9892L25.6346 18.4615L25.5275 18.9018L25.5212 19.0842L25.5399 19.5747L25.5874 20.3589C25.5878 20.3714 25.5878 20.3835 25.5874 20.396L25.5684 20.916C25.568 20.9281 25.567 20.9403 25.5656 20.952L25.5372 21.2166C25.5358 21.2297 25.5337 21.2426 25.5313 21.2554L25.4228 21.7789L25.3524 22.042C25.3486 22.0559 25.3448 22.0694 25.3396 22.0829L25.2546 22.319C25.2494 22.3329 25.2442 22.3464 25.238 22.3599L25.134 22.5863L25.134 22.5863C25.1277 22.5991 25.1215 22.6119 25.1142 22.6244L24.9215 22.9617C24.9145 22.9746 24.9069 22.9863 24.8989 22.9978L24.6615 23.3174L24.4718 23.5292C24.4597 23.5428 24.4472 23.5552 24.4337 23.5674L24.2444 23.7379C24.2312 23.7504 24.217 23.7615 24.2025 23.7723L23.7743 24.0735C23.7598 24.0832 23.7449 24.0929 23.7293 24.1012L23.5025 24.224C23.496 24.2274 23.4894 24.2306 23.4828 24.2338C23.4788 24.2357 23.4749 24.2376 23.471 24.2396L23.2446 24.3432C23.2293 24.3502 23.2141 24.3561 23.1985 24.3616L22.6903 24.5277C22.6722 24.5332 22.6542 24.5377 22.6358 24.5412L22.1127 24.6303C22.1002 24.632 22.0881 24.6334 22.0756 24.6344L20.3606 24.7624L19.7557 24.9146L19.5671 24.9932L19.1868 25.2054L17.8937 26.0319L17.6434 26.1574C17.6305 26.164 17.6177 26.1695 17.6045 26.1751L17.1154 26.3609C17.1018 26.3661 17.0883 26.3699 17.0745 26.3737L16.829 26.4396C16.8169 26.4427 16.8047 26.4455 16.7926 26.4479L16.5472 26.4954C16.5333 26.4982 16.5194 26.5002 16.5056 26.502L16.2508 26.5301C16.2386 26.5315 16.2261 26.5321 16.214 26.5328L15.6936 26.5425C15.6742 26.5425 15.6555 26.5415 15.6364 26.5394L15.114 26.4704L14.8259 26.4077L14.8228 26.4069C14.8085 26.4033 14.794 26.3997 14.7802 26.3952L14.5441 26.3196L14.544 26.3196C14.5322 26.3158 14.5205 26.312 14.5091 26.3072L14.273 26.2129L14.273 26.2128C14.2622 26.2083 14.2515 26.2038 14.2411 26.1986L13.7575 25.947L13.5259 25.8C13.5137 25.7923 13.502 25.784 13.4902 25.7754L13.2919 25.6242C13.277 25.6131 13.2628 25.601 13.2492 25.5881L12.8904 25.2484C12.8804 25.239 12.871 25.229 12.8617 25.219L12.8616 25.2189L12.5216 24.8303L11.4268 23.4537L11.1297 23.1722L10.9778 23.0643L10.6055 22.8706L10.1832 22.7069L8.72927 22.2445C8.71783 22.2403 8.70673 22.2361 8.69564 22.2313L8.22589 22.0202C8.21237 22.0139 8.19955 22.0073 8.18672 22L7.9697 21.8773C7.95895 21.8711 7.94786 21.8645 7.93746 21.8576L7.72911 21.7217C7.70484 21.7061 7.68196 21.6891 7.66046 21.6697L7.50307 21.5421C7.47465 21.5213 7.44795 21.497 7.42403 21.4707L7.28259 21.3299C7.26595 21.3147 7.25 21.2987 7.23544 21.2814L6.8957 20.8733C6.8794 20.8529 6.86415 20.8307 6.85098 20.8082L6.52337 20.2115C6.51817 20.2015 6.51331 20.1907 6.50881 20.18L6.40862 19.93C6.40446 19.9186 6.40064 19.9075 6.39718 19.8964L6.35939 19.7737L6.35823 19.7697C6.35516 19.7589 6.35215 19.7484 6.34968 19.7376L6.29283 19.4918C6.29005 19.4794 6.28763 19.4665 6.28555 19.4537L6.24811 19.2093C6.24603 19.1961 6.24464 19.183 6.2436 19.1698L6.22453 18.924C6.22349 18.9108 6.22314 18.8973 6.22314 18.8841V18.6297C6.22314 18.6165 6.22349 18.603 6.22453 18.5898L6.27341 18.0722C6.27515 18.0583 6.27723 18.0448 6.27965 18.0313L6.3736 17.5342L6.83052 15.6046L6.85514 15.1847L6.77991 14.5361L6.49078 13.3141L6.4159 12.7698C6.41416 12.757 6.41312 12.7438 6.41278 12.7306L6.40307 12.333C6.40307 12.3195 6.40342 12.3063 6.40446 12.2928L6.42352 12.0473C6.4256 12.0217 6.42942 11.996 6.43531 11.9707L6.47518 11.7627C6.47864 11.7412 6.48315 11.7201 6.48905 11.6993L6.66412 11.1643C6.67001 11.1487 6.67694 11.1335 6.68422 11.1189L6.86727 10.7618C6.87524 10.7469 6.88391 10.732 6.89327 10.7178L7.20112 10.2713C7.21187 10.2567 7.22296 10.2429 7.23509 10.2293L7.4899 9.94611C7.50238 9.93259 7.51521 9.91976 7.52873 9.90728L7.84455 9.64208C7.85495 9.63376 7.8657 9.62578 7.87644 9.6185L8.324 9.33042L8.80519 9.08289L9.90554 8.53826L10.265 8.2942L10.4332 8.16558L10.9456 7.67954L11.451 7.13699C11.5016 7.08187 11.562 7.04166 11.6268 7.01392L11.8143 6.77541C11.8216 6.7664 11.8289 6.75738 11.8369 6.74872L12.1815 6.36599C12.1905 6.35559 12.2002 6.34588 12.2102 6.33617L12.3922 6.16353C12.403 6.15347 12.4141 6.14377 12.4255 6.13475L12.6165 5.98187C12.6315 5.97008 12.6467 5.95899 12.6627 5.94894L13.1501 5.67367L13.4122 5.55754C13.4288 5.55026 13.4458 5.54367 13.4631 5.53812L13.7027 5.46151C13.7166 5.45735 13.7304 5.45353 13.7446 5.45007L14.2744 5.34017C14.2861 5.33809 14.2976 5.33636 14.3094 5.33497L14.5583 5.3062C14.5718 5.30446 14.5853 5.30342 14.5988 5.30308L14.8575 5.29372C14.8703 5.29337 14.8828 5.29337 14.8956 5.29372L15.4323 5.32318C15.452 5.32457 15.4721 5.32734 15.4919 5.33116L15.9901 5.42684C16.0105 5.43065 16.0306 5.43585 16.0504 5.44209L16.5468 5.61093L17.0405 5.812L18.1918 6.30324L18.4244 6.38713C18.4608 6.39996 18.4941 6.41729 18.5256 6.43706L18.8786 6.5102L19.3383 6.53586L19.7914 6.51852L20.0458 6.49946L21.0564 6.40516C21.0692 6.40412 21.0817 6.40377 21.0945 6.40377H21.34C21.3531 6.40377 21.3663 6.40412 21.3795 6.40516L21.6249 6.42388C21.6385 6.42492 21.6516 6.42631 21.6648 6.42839L21.9089 6.46618C21.9252 6.4686 21.9414 6.47172 21.9574 6.47588L22.3439 6.59098C22.3616 6.59687 22.3793 6.60415 22.3966 6.61178L22.762 6.78928C22.7776 6.79725 22.7929 6.80592 22.8078 6.81528L23.1468 7.05102C23.1611 7.06142 23.1749 7.07286 23.1881 7.08465L23.5954 7.48228L23.8561 7.82688C23.8676 7.84248 23.8783 7.85912 23.888 7.87611L24.1324 8.32644C24.1404 8.34169 24.1473 8.3573 24.1539 8.37324L24.4268 9.11409L24.9346 10.8076L25.1038 11.2125L25.3091 11.5907L25.5687 11.9333L26.5564 13.1109L26.7162 13.3435C26.7235 13.3536 26.7297 13.364 26.736 13.3744L26.9974 13.8566C27.0029 13.8677 27.0078 13.8788 27.0123 13.8899L27.1991 14.4078C27.2023 14.4196 27.2057 14.4318 27.2085 14.4439L27.2369 14.5666C27.2397 14.5794 27.2425 14.5926 27.2446 14.6058L27.2633 14.7285C27.265 14.741 27.2667 14.7535 27.2674 14.7663ZM26.0055 16.0444L26.2097 15.4543L26.2465 15.0712L26.1979 14.6958L26.0575 14.3051L25.8457 13.914L25.5718 13.5379L25.2577 13.1614L24.6046 12.3932L24.4458 12.172C24.4354 12.1571 24.4254 12.1418 24.4163 12.1262L24.1719 11.6759C24.166 11.6648 24.1612 11.654 24.156 11.643L23.87 10.9222L23.2751 8.97736L23.1967 8.78288L22.9374 8.33289L22.6601 8.00771L22.2739 7.70749L21.9005 7.53866L21.524 7.45857L21.1122 7.44297L20.6216 7.47937L19.6111 7.57367C19.5982 7.57471 19.5858 7.57506 19.5729 7.57506L19.0443 7.56535L18.7777 7.54524C18.7645 7.5442 18.7517 7.54282 18.7388 7.54074L18.4934 7.50295C18.4806 7.50122 18.4677 7.49844 18.4553 7.49567L17.9647 7.38265C17.8562 7.35769 17.7643 7.2998 17.6953 7.22283L17.3455 7.0904L16.1769 6.58252L15.7626 6.44177L15.3244 6.35753L14.8762 6.33292L14.4456 6.3655L13.9991 6.45807L13.8056 6.52012L13.2447 6.81064L13.0911 6.93336L12.94 7.07654L12.6207 7.43153L12.3156 7.82016C12.2511 7.90232 12.1655 7.95675 12.0733 7.98795L11.312 8.77352L11.1133 8.95275C11.1026 8.96211 11.0918 8.97112 11.0808 8.97979L10.6713 9.28174L10.1998 9.56637L8.83464 10.2355L8.24598 10.6608L8.02654 10.9049L7.77936 11.2637L7.55852 11.7515L7.48468 12.0441C7.4826 12.0565 7.48017 12.069 7.4774 12.0815L7.44343 12.3529L7.45175 12.6705L7.51276 13.1226L7.79842 14.321C7.80154 14.3335 7.80397 14.346 7.8057 14.3588L7.87469 14.8688L7.89549 15.1347C7.89688 15.1544 7.89723 15.1742 7.89653 15.1943L7.86706 15.7046C7.86602 15.7188 7.86429 15.733 7.86186 15.7473L7.77416 16.2447L7.64311 16.7727L7.39108 17.7528L7.28014 18.4413L7.26454 18.8642L7.36022 19.4855L7.46284 19.7625L7.73013 20.2492L8.07403 20.6409C8.08755 20.6531 8.10003 20.6656 8.11217 20.6791L8.22171 20.7775C8.23593 20.7883 8.24945 20.799 8.26262 20.8108L8.39228 20.9096L8.68037 21.0829L9.09915 21.2712L9.54047 21.4178L10.7722 21.8127L11.0229 21.9164C11.034 21.9212 11.0447 21.9261 11.0554 21.9313L11.5058 22.1663C11.5255 22.1771 11.5446 22.1892 11.563 22.2024L11.9922 22.539C12.0022 22.548 12.0119 22.5577 12.0213 22.5678L12.37 22.9453L13.6212 24.5064L13.945 24.8132L14.1038 24.9342L14.4865 25.163L14.8789 25.3342L15.0748 25.397L15.5189 25.4798L15.7224 25.5017L16.1557 25.4934L16.5787 25.4296L16.7853 25.3741L17.1996 25.2167L17.6007 25.0028L18.0063 24.7463L18.8657 24.1867L19.1073 24.0599C19.1209 24.0529 19.1344 24.0467 19.1486 24.0408L19.375 23.9468C19.3864 23.942 19.3979 23.9378 19.4097 23.9337L19.6371 23.8577C19.6509 23.8532 19.6648 23.8494 19.679 23.846L20.1845 23.7368C20.197 23.7343 20.2098 23.7326 20.2223 23.7309L20.9901 23.6619L21.9809 23.5967L22.4119 23.5239L22.8355 23.3856L23.2116 23.1977L23.7181 22.8118L24.0357 22.4177L24.1993 22.1313L24.285 21.9441L24.355 21.7493L24.468 21.2969L24.5311 20.8573L24.5488 20.3754L24.5401 20.1299L24.4829 18.9596C24.4829 18.9464 24.4836 18.9329 24.4846 18.9197L24.494 18.797C24.495 18.7817 24.4971 18.7665 24.4996 18.7512L24.5363 18.5214C24.5384 18.5061 24.5415 18.4909 24.5453 18.4759L24.5734 18.3626C24.5769 18.3491 24.5807 18.3355 24.5852 18.3224L24.6608 18.0963C24.6684 18.0735 24.6777 18.0509 24.6885 18.0294L24.8837 17.6692L25.0268 17.4439C25.0352 17.4307 25.0442 17.4182 25.0535 17.4058L25.7909 16.4156L26.0055 16.0444Z" fill="#828487"/>
</svg>
