<svg width="18" height="20" viewBox="0 0 18 20" fill="none" xmlns="http://www.w3.org/2000/svg">
<path d="M11 18.9617C8.47566 19.0582 6.16166 18.9724 3.23865 18.7048C2.19543 18.6092 1.36239 17.736 1.26588 16.6277C0.870425 12.0861 0.947165 8.90301 1.292 4.41419C1.37877 3.28469 2.21856 2.38258 3.28078 2.28634C7.49277 1.90469 10.4667 1.9038 14.7331 2.28821C15.7928 2.38368 16.6326 3.28098 16.7203 4.4076C16.9822 7.77112 17.0688 10.3867 16.9433 13.3485M11 18.9617L16.9433 13.3485M11 18.9617V15.8485C11 14.4678 12.1193 13.3485 13.5 13.3485H16.9433M5 1V3.5M13 1V3.5" stroke="#828487" stroke-width="1.5" stroke-linecap="round"/>
</svg>
