<svg width="17" height="16" viewBox="0 0 17 16" fill="none" xmlns="http://www.w3.org/2000/svg">
<path d="M10.8335 4.33333C10.8335 5.622 9.78878 6.66667 8.50012 6.66667C7.21145 6.66667 6.16678 5.622 6.16678 4.33333C6.16678 3.04467 7.21145 2 8.50012 2C9.78878 2 10.8335 3.04467 10.8335 4.33333Z" stroke="#9C9C9C" stroke-width="1.5"/>
<path d="M4.11621 11.6599C4.34474 10.0765 5.57056 8.78259 7.16611 8.66635C8.07772 8.59994 8.92569 8.59983 9.83555 8.66599C11.4305 8.78196 12.6554 10.0758 12.8838 11.6585L12.9283 11.9663C13.0599 12.8785 12.4262 13.73 11.5098 13.8282C9.35908 14.0589 7.64819 14.0562 5.49426 13.8265C4.57641 13.7286 3.94062 12.8764 4.07248 11.9628L4.11621 11.6599Z" stroke="#9C9C9C" stroke-width="1.5"/>
</svg>
